<svg xmlns="http://www.w3.org/2000/svg" width="16.918" height="11.062" viewBox="0 0 16.918 11.062"><path d="M1.06,11.208h0a.292.292,0,0,1,0-.355l.018-.025C3.46,7.35,6.414,5.5,9.468,5.5s6,1.845,8.382,5.316a.363.363,0,0,1,.068.215.384.384,0,0,1-.074.226c-2.379,3.464-5.328,5.306-8.376,5.306S3.445,14.7,1.06,11.208Zm1.853-.6a.677.677,0,0,0,0,.842c2.04,2.536,4.337,3.727,6.556,3.727s4.516-1.191,6.556-3.727a.677.677,0,0,0,0-.842c-2.04-2.536-4.337-3.727-6.556-3.727S4.952,8.073,2.912,10.61Z" transform="translate(-1 -5.5)" fill="#2e3182" fill-rule="evenodd"/></svg>