<svg xmlns="http://www.w3.org/2000/svg" width="13.915" height="19.042" viewBox="0 0 13.915 19.042"><path d="M18.022,9.591h-.037V7.028a4.028,4.028,0,1,0-8.056,0V9.591h0A2.929,2.929,0,0,0,7,12.521v6.665a2.929,2.929,0,0,0,2.929,2.856h8.129a2.929,2.929,0,0,0,2.856-2.893V12.521a2.93,2.93,0,0,0-2.893-2.929ZM11.394,7.028a2.563,2.563,0,1,1,5.127,0V9.591H11.394ZM19.45,19.149a1.465,1.465,0,0,1-1.428,1.428H9.929a1.465,1.465,0,0,1-1.465-1.428V12.521a1.465,1.465,0,0,1,1.465-1.465h8.129a1.465,1.465,0,0,1,1.392,1.465Z" transform="translate(-7 -3)" fill="#2e3182"/></svg>