<svg xmlns="http://www.w3.org/2000/svg" width="17.44" height="22.748" viewBox="0 0 17.44 22.748"><path d="M22.55,16.261,18.928,14.45a1,1,0,0,1-.554-.9V12.271c.087-.106.178-.227.273-.361a8.677,8.677,0,0,0,1.12-2.2,1.5,1.5,0,0,0,.882-1.371V6.824a1.512,1.512,0,0,0-.379-1V3.813a3.4,3.4,0,0,0-.793-2.474A4.772,4.772,0,0,0,15.72,0a4.773,4.773,0,0,0-3.756,1.338,3.4,3.4,0,0,0-.793,2.474V5.829a1.512,1.512,0,0,0-.379,1V8.341a1.508,1.508,0,0,0,.568,1.179,7.957,7.957,0,0,0,1.328,2.744v1.255a1,1,0,0,1-.522.88L8.783,16.243a3.419,3.419,0,0,0-1.783,3v1.228c0,1.8,5.7,2.275,8.72,2.275s8.72-.475,8.72-2.275V19.32A3.4,3.4,0,0,0,22.55,16.261Z" transform="translate(-7)" fill="#2e3182"/></svg>