<svg xmlns="http://www.w3.org/2000/svg" width="31.378" height="31.378" viewBox="0 0 31.378 31.378"><g transform="translate(6.276)"><path d="M111.813,0c-5.2,0-9.413,5.268-9.413,11.767s4.215,11.767,9.413,11.767,9.413-5.268,9.413-11.767S117.012,0,111.813,0Zm0,21.965c-4.326,0-7.845-4.575-7.845-10.2s3.519-10.2,7.845-10.2,7.845,4.575,7.845,10.2S116.139,21.965,111.813,21.965Z" transform="translate(-102.4)"/></g><g transform="translate(0 22.171)"><path d="M22.542,361.762a11.184,11.184,0,0,1-1.337,1.109c1.495.695,2.806,1.272,3.925,1.761,4.155,1.813,4.68,2.172,4.68,3.2A1.677,1.677,0,0,1,28.24,369.4H3.138a1.677,1.677,0,0,1-1.569-1.569c0-1.028.525-1.386,4.679-3.2,1.12-.489,2.431-1.066,3.925-1.761a11.2,11.2,0,0,1-1.337-1.109C2.3,364.751,0,365.152,0,367.832a3.248,3.248,0,0,0,3.138,3.138h25.1a3.248,3.248,0,0,0,3.138-3.138C31.378,365.152,29.074,364.751,22.542,361.762Z" transform="translate(0 -361.762)"/></g></svg>